<svg class="w-[105%]" viewBox="0 0 1203 496" fill="none" xmlns="http://www.w3.org/2000/svg"><g filter="url(#filter0_f_1077_4390)"><path class="grow-path" d="M55 444L99.3575 426.018L154.804 433.211L225.037 420.624H295.27L347.02 407.138L391.378 403.541L435.735 409.835L478.245 399.046L511.513 396.349L533.691 391.853L563.263 390.055L592.835 380.165L633.496 376.569L664.916 363.083L690.791 358.587L707.425 338.807L729.604 321.725L744.39 300.147L762.872 291.156L790.595 285.761L814.622 279.468L831.256 269.578L842.346 256.991L857.132 251.596L881.158 236.312L916.275 202.147L940.302 197.651L962.481 178.771L986.508 150.899L997.597 142.807L1012.38 131.119L1036.41 120.33L1058.59 106.844H1078.92L1101.1 88.8624L1132.52 69.0826L1151 52" stroke="url(#paint0_linear_1077_4390)" stroke-width="3.56158" style="stroke-dashoffset: 0; stroke-dasharray: none;"></path></g><path class="grow-path stroke-[16px] sm:stroke-[6px]" d="M2 463.5L95.0995 427.658C97.894 426.582 100.913 426.22 103.882 426.605L152.049 432.854C153.875 433.09 155.727 433.046 157.54 432.721L223.462 420.906C224.51 420.718 225.573 420.624 226.637 420.624H292.963C294.495 420.624 296.02 420.428 297.502 420.042L345.501 407.534C346.512 407.27 347.544 407.095 348.585 407.011L389.379 403.703C390.708 403.596 392.043 403.636 393.363 403.823L432.22 409.336C434.541 409.665 436.904 409.538 439.177 408.961L476.779 399.418C477.754 399.17 478.749 399.005 479.752 398.924L511.513 396.349L533.691 391.853L560.896 390.199C562.467 390.103 564.019 389.802 565.512 389.303L590.824 380.838C592.16 380.391 593.544 380.102 594.947 379.978L630.628 376.822C632.528 376.654 634.389 376.185 636.142 375.433L662.976 363.915C664.265 363.362 665.613 362.961 666.995 362.721L684.322 359.711C688.5 358.985 692.288 356.807 695.017 353.562L706.173 340.296C707.005 339.306 707.941 338.409 708.966 337.621L727.348 323.462C728.843 322.311 730.147 320.932 731.213 319.376L741.698 304.075C743.462 301.501 745.865 299.429 748.672 298.064L760.751 292.188C762.159 291.503 763.65 291.005 765.187 290.705L790.595 285.761L812.166 280.111C813.796 279.684 815.357 279.031 816.804 278.17L828.822 271.026C830.435 270.066 831.888 268.861 833.129 267.453L839.315 260.43C841.304 258.173 843.826 256.451 846.652 255.42L855.292 252.268C856.515 251.821 857.686 251.244 858.784 250.545L879.596 237.306C880.635 236.645 881.603 235.879 882.486 235.02L912.378 205.938C914.919 203.466 918.134 201.799 921.619 201.147L935.592 198.532C938.678 197.955 941.56 196.581 943.95 194.546L961.422 179.671C962.127 179.072 962.784 178.419 963.388 177.718L985.156 152.467C986.054 151.425 987.069 150.49 988.18 149.679L997.597 142.807L1010.63 132.504C1011.79 131.584 1013.07 130.812 1014.42 130.205L1036.41 120.33L1054.28 109.464C1057.1 107.75 1060.33 106.844 1063.63 106.844H1072.54C1076.67 106.844 1080.67 105.425 1083.87 102.826L1101.1 88.8624L1131.11 69.9683C1132.05 69.3791 1132.93 68.7048 1133.74 67.9541L1151 52" stroke="url(#paint1_linear_1077_4390)" stroke-linecap="round" style="stroke-dashoffset: 0; stroke-dasharray: none;"></path><defs><filter id="filter0_f_1077_4390" x="4.33203" y="0.691406" width="1197.88" height="494.959" filterUnits="userSpaceOnUse" color-interpolation-filters="sRGB"><feFlood flood-opacity="0" result="BackgroundImageFix"></feFlood><feBlend mode="normal" in="SourceGraphic" in2="BackgroundImageFix" result="shape"></feBlend><feGaussianBlur stdDeviation="25" result="effect1_foregroundBlur_1077_4390"></feGaussianBlur></filter><linearGradient id="paint0_linear_1077_4390" x1="1169.48" y1="52" x2="668.502" y2="820.866" gradientUnits="userSpaceOnUse"><stop offset="0.0635569" stop-color="#6A07E4"></stop><stop offset="0.256034" stop-color="#E22295"></stop><stop offset="0.409902" stop-color="#F73CE0"></stop><stop offset="0.537286" stop-color="#C8BCD7"></stop><stop offset="1" stop-color="#D5D5D5"></stop></linearGradient><linearGradient id="paint1_linear_1077_4390" x1="1169.48" y1="51.9999" x2="668.502" y2="820.866" gradientUnits="userSpaceOnUse"><stop offset="0.0635569" stop-color="#6A07E4"></stop><stop offset="0.256034" stop-color="#E22295"></stop><stop offset="0.409902" stop-color="#F73CE0"></stop><stop offset="0.537286" stop-color="#DDDDDD"></stop><stop offset="1" stop-color="#DDDDDD" stop-opacity="0.2"></stop></linearGradient></defs></svg>